<svg width="67" height="62" viewBox="0 0 67 62" fill="none" xmlns="http://www.w3.org/2000/svg">
<path d="M59.8767 22.1516L64.9115 51.6847C65.5893 55.6601 62.1807 59.2455 57.7237 59.2455H9.22519C4.768 59.2455 1.35954 55.6601 2.0373 51.6847L7.07206 22.1516C7.6179 18.95 10.6705 16.5867 14.26 16.5867H52.689C56.2783 16.5867 59.3309 18.95 59.8767 22.1516Z" fill="#E22A19" stroke="#E22A19" stroke-width="3.7" stroke-linecap="round" stroke-linejoin="round"/>
<path d="M40.5449 8.56289C40.5449 4.9383 37.289 2 33.2725 2C29.2559 2 26 4.9383 26 8.56289" fill="#E22A19"/>
<path d="M40.5449 8.56289C40.5449 4.9383 37.289 2 33.2725 2C29.2559 2 26 4.9383 26 8.56289" stroke="#E22A19" stroke-width="3.7" stroke-linecap="round" stroke-linejoin="round"/>
</svg>
