<svg width="35" height="37" viewBox="0 0 35 37" fill="none" xmlns="http://www.w3.org/2000/svg">
<path d="M30.4001 14.1065L32.8686 30.3789C33.2009 32.5694 31.5297 34.5448 29.3446 34.5448H5.56635C3.38106 34.5448 1.70993 32.5694 2.04223 30.3789L4.51071 14.1065C4.77832 12.3425 6.27498 11.0403 8.03485 11.0403H26.8761C28.6359 11.0403 30.1326 12.3425 30.4001 14.1065Z" fill="#E22A19" stroke="#E22A19" stroke-width="3.7" stroke-linecap="round" stroke-linejoin="round"/>
<path d="M21.0218 5.61609C21.0218 3.61898 19.4255 2 17.4562 2C15.4869 2 13.8906 3.61898 13.8906 5.61609" fill="#E22A19"/>
<path d="M21.0218 5.61609C21.0218 3.61898 19.4255 2 17.4562 2C15.4869 2 13.8906 3.61898 13.8906 5.61609" stroke="#E22A19" stroke-width="3.7" stroke-linecap="round" stroke-linejoin="round"/>
</svg>
