<svg width="61" height="65" viewBox="0 0 61 65" fill="none" xmlns="http://www.w3.org/2000/svg">
<path d="M54.405 24.7055L58.9225 54.6228C59.5307 58.65 56.4722 62.2819 52.4731 62.2819H8.9565C4.95717 62.2819 1.89883 58.65 2.50697 54.6228L7.02455 24.7055C7.51431 21.4622 10.2534 19.0681 13.4741 19.0681H47.9556C51.1762 19.0681 53.9152 21.4622 54.405 24.7055Z" fill="#E22A19" stroke="#E22A19" stroke-width="3.7" stroke-linecap="round" stroke-linejoin="round"/>
<path d="M37.2422 9.09555C37.2422 5.4238 34.3208 2.44727 30.7168 2.44727C27.1128 2.44727 24.1914 5.4238 24.1914 9.09555" fill="#E22A19"/>
<path d="M37.2422 9.09555C37.2422 5.4238 34.3208 2.44727 30.7168 2.44727C27.1128 2.44727 24.1914 5.4238 24.1914 9.09555" stroke="#E22A19" stroke-width="3.7" stroke-linecap="round" stroke-linejoin="round"/>
</svg>
