<svg width="285" height="20" viewBox="0 0 285 20" fill="none" xmlns="http://www.w3.org/2000/svg">
<path d="M6.8841 5.37276L8.84889 1.38404C9.10107 0.871988 9.8298 0.871988 10.082 1.38404L12.0467 5.37276L16.4406 6.01633C17.0044 6.0989 17.229 6.79333 16.821 7.19165L13.6421 10.2943L14.3923 14.6775C14.4887 15.2404 13.899 15.6696 13.3946 15.4037L9.46544 13.3331L5.53626 15.4037C5.03183 15.6696 4.44221 15.2404 4.53854 14.6775L5.28875 10.2943L2.10995 7.19165C1.70181 6.79333 1.9265 6.0989 2.49025 6.01633L6.8841 5.37276Z" fill="#E3BA2B" stroke="#E3BA2B" stroke-width="2" stroke-linecap="round" stroke-linejoin="round"/>
<path d="M273.854 8.5793L275.819 4.59058C276.071 4.07853 276.8 4.07853 277.052 4.59058L279.016 8.5793L283.41 9.22287C283.974 9.30544 284.199 9.99987 283.791 10.3982L280.612 13.5008L281.362 17.884C281.458 18.4469 280.869 18.8761 280.364 18.6103L276.435 16.5397L272.506 18.6103C272.002 18.8761 271.412 18.4469 271.508 17.884L272.258 13.5008L269.08 10.3982C268.672 9.99987 268.896 9.30544 269.46 9.22287L273.854 8.5793Z" fill="#E3BA2B" stroke="#E3BA2B" stroke-width="2" stroke-linecap="round" stroke-linejoin="round"/>
</svg>
