<svg width="40" height="38" viewBox="0 0 40 38" fill="none" xmlns="http://www.w3.org/2000/svg">
<path d="M34.994 14.4665L37.8618 31.2228C38.2478 33.4784 36.3063 35.5126 33.7677 35.5126H6.14323C3.60445 35.5126 1.66301 33.4784 2.04906 31.2228L4.91683 14.4665C5.22773 12.65 6.96648 11.3091 9.01102 11.3091H30.8999C32.9444 11.3091 34.6831 12.65 34.994 14.4665Z" fill="#E22A19" stroke="#E22A19" stroke-width="3.7" stroke-linecap="round" stroke-linejoin="round"/>
<path d="M24.0992 5.72362C24.0992 3.66712 22.2446 2 19.9568 2C17.669 2 15.8145 3.66712 15.8145 5.72362" fill="#E22A19"/>
<path d="M24.0992 5.72362C24.0992 3.66712 22.2446 2 19.9568 2C17.669 2 15.8145 3.66712 15.8145 5.72362" stroke="#E22A19" stroke-width="3.7" stroke-linecap="round" stroke-linejoin="round"/>
</svg>
