<svg width="290" height="18" viewBox="0 0 290 18" fill="none" xmlns="http://www.w3.org/2000/svg">
<path d="M280.718 9.21336L282.185 6.28221C282.373 5.90593 282.917 5.90593 283.105 6.28221L284.571 9.21336L287.85 9.68629C288.271 9.74697 288.438 10.2573 288.134 10.55L285.761 12.83L286.321 16.051C286.393 16.4647 285.953 16.7801 285.577 16.5847L282.645 15.0631L279.713 16.5847C279.336 16.7801 278.896 16.4647 278.968 16.051L279.528 12.83L277.156 10.55C276.851 10.2573 277.019 9.74697 277.439 9.68629L280.718 9.21336Z" fill="#E3BA2B" stroke="#E3BA2B" stroke-width="2" stroke-linecap="round" stroke-linejoin="round"/>
<path d="M4.71835 4.21336L6.18457 1.28221C6.37277 0.905929 6.91657 0.905929 7.10477 1.28221L8.57097 4.21336L11.8499 4.68629C12.2706 4.74697 12.4382 5.25728 12.1337 5.54999L9.76149 7.82999L10.3213 11.051C10.3932 11.4647 9.95324 11.7801 9.57679 11.5847L6.64467 10.0631L3.71253 11.5847C3.3361 11.7801 2.8961 11.4647 2.96799 11.051L3.52782 7.82999L1.15565 5.54999C0.851078 5.25728 1.01875 4.74697 1.43945 4.68629L4.71835 4.21336Z" fill="#E3BA2B" stroke="#E3BA2B" stroke-width="2" stroke-linecap="round" stroke-linejoin="round"/>
</svg>
