<svg width="61" height="67" viewBox="0 0 61 67" fill="none" xmlns="http://www.w3.org/2000/svg">
<path d="M54.405 25.597L58.9225 56.7224C59.5307 60.9122 56.4722 64.6909 52.4731 64.6909H8.9565C4.95717 64.6909 1.89883 60.9122 2.50697 56.7224L7.02455 25.597C7.51431 22.2227 10.2534 19.7319 13.4741 19.7319H47.9556C51.1762 19.7319 53.9152 22.2227 54.405 25.597Z" fill="#E22A19" stroke="#E22A19" stroke-width="3.7" stroke-linecap="round" stroke-linejoin="round"/>
<path d="M37.2422 9.3567C37.2422 5.53668 34.3208 2.43994 30.7168 2.43994C27.1128 2.43994 24.1914 5.53668 24.1914 9.3567" fill="#E22A19"/>
<path d="M37.2422 9.3567C37.2422 5.53668 34.3208 2.43994 30.7168 2.43994C27.1128 2.43994 24.1914 5.53668 24.1914 9.3567" stroke="#E22A19" stroke-width="3.7" stroke-linecap="round" stroke-linejoin="round"/>
</svg>
