<svg width="39" height="37" viewBox="0 0 39 37" fill="none" xmlns="http://www.w3.org/2000/svg">
<path d="M38.2672 14.8768H36.7367V14.8H19.6367V22.2H30.3746C28.808 26.5077 24.5986 29.6 19.6367 29.6C13.3411 29.6 8.23672 24.63 8.23672 18.5C8.23672 12.37 13.3411 7.4 19.6367 7.4C22.5428 7.4 25.1866 8.46745 27.1997 10.2111L32.5738 4.97835C29.1804 1.89902 24.6413 0 19.6367 0C9.14397 0 0.636719 8.28337 0.636719 18.5C0.636719 28.7166 9.14397 37 19.6367 37C30.1295 37 38.6367 28.7166 38.6367 18.5C38.6367 17.2596 38.5056 16.0487 38.2672 14.8768Z" fill="#FFC107"/>
</svg>
