<svg width="27" height="27" viewBox="0 0 27 27" fill="none" xmlns="http://www.w3.org/2000/svg">
<path d="M13.0842 25C12.5127 25 12.0361 24.1061 11.4458 24.0041C11.1334 23.9501 10.9366 23.606 10.6469 23.484C10.1531 23.2762 9.29982 22.6628 8.98827 22.1893C8.73789 21.8088 8.59294 21.3764 8.35113 20.9942C7.98208 20.411 7.48352 19.9027 7.09708 19.3233C6.83887 18.9362 6.7018 18.3552 6.34869 18.0508C5.96006 17.7157 5.69387 17.3933 5.38287 16.9774C5.07891 16.5709 4.76598 16.2994 4.5738 15.8321C4.31215 15.1959 3.88354 14.6554 3.57258 14.0505C3.24473 13.4128 2.89964 12.78 2.66239 12.0532C2.42207 11.3169 2.16178 10.2964 2.16178 9.51361C2.16178 8.91748 1.81166 7.69252 2.14155 7.15109C2.2245 7.01495 2.13731 6.75675 2.182 6.59781C2.22989 6.42752 2.3459 6.32767 2.41461 6.17732C2.55147 5.87782 2.73197 5.58241 2.86971 5.281C3.08757 4.80423 3.31965 4.35722 3.5473 3.88672C3.66816 3.63694 3.92536 3.30621 4.18444 3.21172C4.45707 3.11228 4.9899 2.80743 5.25645 2.79122C5.53548 2.77426 5.61257 2.79819 5.8228 2.61417C6.00046 2.45866 6.36671 2.49723 6.53579 2.34306C6.65281 2.23637 7.41463 2.19368 7.57746 2.19368C8.06627 2.19368 8.55508 2.19368 9.04389 2.19368C9.77527 2.19368 10.2181 2.35476 10.8542 2.74143C11.0944 2.88747 11.3183 3.08654 11.5773 3.18959C11.9611 3.34232 11.9815 3.66505 12.2245 3.93099C12.4108 4.13477 12.4979 4.4459 12.6746 4.67792C12.807 4.85182 13.0419 5.00808 13.1954 5.15927C13.2843 5.24677 13.7985 5.21758 13.8123 5.08182C13.8425 4.78461 14.1627 4.17549 14.3382 3.96418C14.5264 3.73767 14.7098 3.50231 14.9046 3.28918C15.0028 3.18173 15.1834 3.22445 15.2484 3.09C15.3392 2.90227 15.2669 2.93736 15.4709 2.86868C16.1041 2.65552 16.5403 2.19368 17.2711 2.19368C17.9767 2.19368 19.2471 1.72308 19.8651 2.24901C20.4758 2.76867 21.1663 3.43485 21.9637 3.59348C22.5297 3.7061 22.8661 4.22502 23.0003 4.73878C23.1714 5.39399 23.534 5.97988 24.0521 6.42076C24.3024 6.63377 24.4539 6.64722 24.6032 6.97404C24.7923 7.38767 24.7286 7.84157 24.846 8.29086C25.0906 9.22765 25.0632 10.2909 24.6235 11.1569C24.4554 11.4878 24.3343 11.8597 24.2088 12.2302C24.1095 12.5237 24.0599 12.8771 23.9358 13.1487C23.6584 13.7557 23.3396 14.476 22.8941 14.9634C22.5546 15.3349 22.3213 15.8035 21.9839 16.1585C21.5631 16.6013 20.9854 16.8869 20.4972 17.243C20.0652 17.5581 19.7387 17.8326 19.41 18.2721C19.2319 18.5103 19.07 18.9438 18.8639 19.1241C18.7516 19.2224 18.7175 19.414 18.5959 19.528C18.4553 19.6599 18.2536 19.8702 18.1307 20.0315C17.9499 20.2689 17.6659 20.4193 17.5087 20.6678C17.3489 20.9204 17.3399 21.0608 17.084 21.2653C16.4454 21.776 15.7606 22.2676 15.2282 22.9031C14.8574 23.3457 14.3281 23.5701 13.9084 23.9432C13.4847 24.3199 13.2865 25 12.7201 25" stroke="#EE1313" stroke-width="3" stroke-linecap="round"/>
</svg>
