<svg width="25" height="23" viewBox="0 0 25 23" fill="none" xmlns="http://www.w3.org/2000/svg">
<path d="M11.5041 6.22968C12.4885 6.16491 11.6078 5.17142 11.3258 4.74265C10.8782 4.06205 10.4095 3.76541 9.72123 3.43609C8.85188 3.0201 7.90812 2.90366 7.00577 2.69257C6.18389 2.50031 5.12615 2.07178 4.28346 2.07178C3.3337 2.07178 3.23973 2.24783 2.74058 3.08238C2.51263 3.4635 2.70856 3.91375 2.49372 4.30954C2.29609 4.67361 2.29722 5.00804 2.24 5.39954C2.08945 6.42968 1.87276 7.73435 2.39772 8.66956C2.92086 9.60152 3.18068 11.0963 3.90631 11.8602C4.45362 12.4363 4.82479 13.2313 5.38747 13.8236C5.87833 14.3403 6.03347 15.0796 6.56691 15.585C7.02855 16.0223 7.47415 16.3639 7.67778 17.007C7.85917 17.5799 8.51051 18.0136 8.54179 18.5734C8.55737 18.8523 9.6206 19.6993 9.83781 19.7501C10.0927 19.8097 10.2646 20.194 10.5852 20.2554C10.9923 20.3333 11.1248 20.4816 11.5041 20.6813C12.1727 21.0332 12.5838 21.2515 12.9236 20.4647C13.302 19.5883 13.7808 18.8579 14.343 18.097C14.7273 17.5769 15.033 17.111 15.5224 16.6894C15.8428 16.4135 16.296 16.1378 16.4687 15.7438C16.5613 15.5327 16.8215 15.5103 16.9076 15.2962C16.9933 15.0831 17.0493 14.8981 17.1819 14.7043C17.4007 14.3843 17.648 14.3508 17.9225 14.0979C18.1023 13.9323 18.4982 13.5794 18.7248 13.506C19.2929 13.322 19.4176 13.0307 19.8699 12.6542C20.6099 12.0383 21.467 11.5631 22.0642 10.7629C22.3602 10.3664 22.5743 9.92281 22.9145 9.56466C23.2359 9.2264 22.5617 10.4467 22.366 10.8784C22.0477 11.5804 21.3459 12.1166 20.7888 12.5965C20.0983 13.1912 19.6171 13.8343 19.0265 14.495C18.6688 14.895 18.3329 15.3296 17.991 15.7221C17.6589 16.1036 17.1478 16.3086 16.8116 16.6822C16.5139 17.0129 16.1772 17.4012 15.8927 17.7505C15.6962 17.9919 14.9602 18.4519 14.9602 18.7684C14.9602 18.9174 14.8495 19.0036 14.9122 18.8189C15.0846 18.3107 15.5048 17.9327 15.7967 17.5051C16.5522 16.3986 17.3894 15.3851 18.1625 14.3C19.4601 12.4787 20.639 10.7139 21.7214 8.74174C21.9339 8.35457 22.3264 7.57612 22.366 7.13922C22.382 6.96143 22.748 6.09133 22.5511 6.5473C22.3221 7.07767 22.2899 7.55273 21.934 8.04154C21.0722 9.22473 20.4925 10.5214 19.7328 11.7735C19.4079 12.309 19.0783 12.8369 18.7591 13.3761C18.6748 13.5184 18.183 14.2829 18.183 14.2351C18.183 12.4702 18.7005 10.5491 19.0333 8.82837C19.0489 8.74779 19.5346 6.2345 19.7739 6.38849C20.3308 6.74673 20.6608 8.07766 21.0219 8.6479C21.3486 9.16379 21.7816 9.73791 22.4208 9.73791C22.812 9.73791 22.8597 8.77828 22.8597 8.49631C22.8597 8.29399 22.8597 7.58943 22.8597 7.65896C22.8597 8.2732 22.1726 9.02408 21.9408 9.60075C21.5132 10.6647 21.7381 9.44105 21.5705 9.08824C21.1017 8.10124 19.1218 10.5535 18.7248 10.9001C18.2972 11.2733 17.8514 11.6498 17.3945 11.9829C17.245 12.0918 17.4189 11.44 17.4356 11.3549C17.5297 10.876 18.788 7.35916 19.0059 7.38465C19.1229 7.39834 19.0205 9.80464 19.1842 10.1277C19.2652 10.2876 19.4044 9.67043 19.4311 9.60797C19.7916 8.76445 20.2143 7.84835 20.4322 6.95154C20.595 6.28177 20.7061 5.59602 20.8711 4.92311C20.9939 4.42228 21.1753 5.05713 21.2551 5.25517C21.4754 5.80178 21.7757 6.19094 22.0917 6.64836C22.1613 6.7491 22.1191 6.96323 22.1191 7.08147C22.1191 7.41069 21.9968 6.4306 21.8722 6.12862C21.6001 5.46874 21.1584 4.83571 20.5556 4.46834C19.666 3.92613 18.8717 3.42877 18.0185 2.85138C17.8781 2.7564 17.1484 2.4246 17.4562 2.10065C17.818 1.71975 18.8972 2.5395 19.2802 2.58429C19.7838 2.6432 19.7747 2.85901 20.1442 3.0535C21.0469 3.52865 20.4685 3.23975 19.8151 3.11125C18.0879 2.77159 16.2276 2.34861 14.4527 2.62039C14.1631 2.66474 13.7602 2.69475 13.5064 2.85138C13.4603 2.87983 13.1749 3.10174 13.3556 3.11125C15.0788 3.20195 16.922 2.83548 18.6219 3.18344C19.1284 3.28712 22.3916 3.79524 22.366 4.28066C22.3554 4.48004 18.6438 4.00761 18.2928 3.17622C18.0491 2.599 17.6363 1.54016 18.6631 2.38939C19.2763 2.89659 18.5656 2.72145 18.087 2.72145C17.0014 2.72145 15.8948 2.5908 14.8642 2.95244C14.6798 3.01712 14.5817 2.93994 14.7133 2.75032C14.9525 2.40574 15.5503 2.21938 15.9202 2.12952C16.196 2.06252 16.4763 2.07178 16.7567 2.07178C16.9362 2.07178 16.471 2.30842 16.3659 2.46158C15.6488 3.50676 14.2409 4.05686 13.143 4.39616C12.0801 4.72464 10.9677 4.95745 9.87895 5.17577C9.66246 5.21917 9.48803 5.18306 9.68009 4.93033C9.92492 4.60817 10.3685 4.31532 10.7635 4.28066C11.1209 4.24931 10.7049 4.28066 10.5852 4.28066C10.3044 4.28066 9.94919 4.33895 9.68009 4.25179C9.36583 4.14999 9.09223 3.87408 8.78865 3.73205C8.46648 3.58132 8.09036 3.37213 7.91778 3.03907C7.74196 2.69973 7.23736 2.15281 8.05493 2.40383C8.63803 2.58286 10.3561 3.11125 9.74866 3.11125C9.03575 3.11125 8.68268 3.02395 8.0755 2.64926C7.72975 2.4359 7.20049 2.52157 6.82063 2.39661C6.30233 2.22611 6.63382 3.16039 6.75891 3.39278C7.05753 3.94751 7.06063 4.4949 7.06063 5.11802C7.06063 5.26913 6.94609 6.07853 7.08806 6.2008C7.60249 6.64388 8.2878 5.36516 8.76122 5.76769C9.19465 6.13622 8.70388 7.50837 8.54179 7.88995C8.38941 8.24868 7.09477 9.78225 6.77263 9.02327C6.27716 7.85592 6.6165 6.25027 6.56005 5.00252C6.53637 4.47886 6.2739 4.38429 5.81947 4.48278C5.18976 4.61926 4.66055 4.5688 4.16688 4.75709C4.0012 4.82028 3.18792 5.3435 3.01487 5.16133C2.81064 4.94634 3.39611 4.31327 3.49487 4.1796C3.60955 4.02439 3.76505 3.62802 3.90631 3.97748C4.23308 4.78585 4.30077 5.58285 4.35203 6.44623C4.38608 7.01975 4.6326 6.47087 4.73603 6.25855C5.04278 5.62888 5.35196 5.16447 5.8949 4.77152C6.60556 4.2572 4.1516 4.86019 3.30973 4.66325C2.21412 4.40695 5.52286 4.07377 6.64234 4.15795C7.14791 4.19596 6.533 4.28066 6.38177 4.28066C6.10499 4.28066 5.33716 4.42862 5.11318 4.25179C4.99258 4.15657 6.03 3.33007 6.38862 3.52993C6.90201 3.81604 5.04472 4.6219 4.92118 4.64881C4.51984 4.73622 3.90504 4.84587 3.98174 4.28066C4.14771 3.05765 7.51686 3.78399 8.02064 3.86198C8.39564 3.92004 9.12681 3.95093 9.47437 4.1796C9.64093 4.28918 8.70719 4.4106 8.65836 4.4106C7.76693 4.4106 6.87549 4.4106 5.98405 4.4106C5.53439 4.4106 4.37807 4.60779 4.00231 4.25179C3.87101 4.12739 4.34682 4.15073 4.52346 4.15073C5.35866 4.15073 6.19934 4.12346 7.0332 4.1796C7.49496 4.21069 11.0027 4.44563 10.8664 5.45007C10.8123 5.84852 10.0819 6.12967 9.82409 6.22968C8.57494 6.71414 7.12538 6.84231 5.80576 6.68445C5.23742 6.61646 5.30768 6.12848 5.82633 6.09974C5.98318 6.09105 6.19662 6.0652 6.19662 6.28743C6.19662 7.02025 5.05664 7.28156 4.5646 7.4424C3.89077 7.66267 3.1125 7.89288 2.39772 7.91883C1.77351 7.94148 2.96143 7.85474 2.97373 7.85386C4.43798 7.74828 5.90948 7.78889 7.37606 7.78889C8.40444 7.78889 9.43382 7.78016 10.4618 7.81777C11.1227 7.84194 12.0831 7.74977 12.711 8.04876C13.1851 8.27456 12.4134 8.56906 12.2996 8.59737C11.0516 8.90788 9.76535 8.82837 8.49379 8.82837C8.35819 8.82837 4.94282 8.97938 5.40804 8.38081C5.6611 8.05521 6.26718 7.84828 6.62863 7.73836C7.14818 7.58036 7.62708 7.64718 6.85491 7.65896C6.05983 7.67109 5.26378 7.65896 4.4686 7.65896C4.17361 7.65896 3.39315 7.81582 3.1383 7.63008C2.73187 7.33388 4.958 6.52454 5.19547 6.49677C6.04624 6.39725 4.92203 7.04213 4.67432 7.14644C4.4223 7.25256 2 8.13286 2 7.39909C2 6.14465 3.89174 6.46651 4.59203 6.48955C5.88777 6.53217 6.21392 7.70059 4.95546 8.16426C4.22757 8.43244 2.94302 8.50763 2.63772 7.54346C2.28061 6.41568 3.12795 6.05259 3.97488 6.12862C5.33222 6.25046 6.2644 6.79564 7.36235 7.61564C7.82422 7.96059 8.71041 8.50974 8.78865 9.1893C8.87933 9.9768 7.99392 9.91019 7.49949 9.86062C7.02997 9.81355 6.91098 8.88618 7.1292 8.52519C7.27715 8.28046 7.30917 8.6373 7.29378 8.73452C7.19131 9.38174 7.04087 9.92886 6.49834 10.301C5.35823 11.0829 3.63914 10.8478 2.56915 10.0627C0.998084 8.91006 4.48058 8.8188 4.98975 8.82837C6.60818 8.85879 8.37186 9.17748 9.83095 9.94003C10.2664 10.1676 10.6256 10.4851 10.5852 11.0373C10.4894 12.3492 7.25933 12.0574 6.59434 11.8674C5.83845 11.6514 4.60057 11.0095 4.73603 9.94003C4.88158 8.79087 7.05569 10.7545 7.26635 10.9795C7.37264 11.093 8.35066 12.3946 7.60921 12.1778C7.20312 12.059 6.79791 11.5359 6.51205 11.2394C6.44336 11.1681 5.71662 10.4647 5.71662 10.4814C5.71662 11.1661 6.32625 12.0122 6.49148 12.6831C6.7638 13.7888 6.97597 14.9356 7.11549 16.0686C7.32875 17.8005 7.48475 16.0217 7.52692 15.2818C7.56714 14.5762 7.50662 13.8629 7.55435 13.1595C7.59173 12.6087 7.8083 14.2322 7.89721 14.7765C8.14114 16.2696 8.91208 20.7093 8.91208 19.1942C8.91208 18.5266 8.56491 17.93 8.33607 17.3246C7.87295 16.0996 7.48761 14.8503 6.95092 13.6576C6.89291 13.5287 6.58656 12.7274 6.57377 12.8419C6.46354 13.8282 6.74908 14.8696 6.90977 15.8304C7.01664 16.4694 7.08535 17.129 7.06063 17.7794C7.04549 18.1778 6.75408 17.0501 6.60805 16.6822C6.06438 15.3123 5.50507 13.9617 5.01718 12.5676C4.88339 12.1853 4.18075 10.9177 4.35203 10.467C4.36981 10.4202 4.91703 11.1656 4.94861 11.2033C5.92655 12.3719 7.22307 13.5419 8.54179 14.2567C8.80109 14.3973 12.085 15.7876 11.9773 14.6538C11.9407 14.2685 11.7043 13.8623 11.5658 13.506C11.2203 12.617 11.0983 11.6395 10.9555 10.698C10.8462 9.97693 10.5958 9.26921 10.5235 8.54684C10.4662 7.97356 10.7202 9.683 10.7635 10.2576C10.9223 12.3631 10.3788 14.2994 10.2698 16.3646C10.1554 18.5316 10.2698 12.0238 10.2698 9.8534C10.2698 8.5949 10.191 12.3807 9.95438 13.6143C9.80682 14.3836 9.52923 15.168 9.52923 15.9603C9.52923 16.454 9.40214 15.9917 9.37837 15.7582C9.17769 13.7865 9.13215 7.83342 9.28237 9.81009C9.36837 10.9418 9.52203 12.0652 9.52923 13.2028C9.53329 13.8436 9.6429 15.0611 9.1658 15.5633C8.94222 15.7987 8.86742 15.037 8.85037 14.9353C8.63306 13.639 8.64093 12.2768 8.67208 10.9651C8.69174 10.1372 8.82549 9.31744 9.44695 8.74174C9.98555 8.24279 9.97006 9.27872 9.96809 9.60797C9.95718 11.4348 9.52602 13.4155 8.44579 14.8775C7.80351 15.7468 7.27011 11.9934 7.19778 11.6725C7.17787 11.5842 6.91998 10.1472 7.26635 10.4598C7.83993 10.9773 8.15203 12.1673 8.44579 12.8708C9.09898 14.4351 9.69963 16.0229 10.359 17.5845C10.4283 17.7487 10.7247 18.8576 10.791 18.5157C10.9254 17.8224 11.0828 17.1332 11.2024 16.4367C11.2889 15.9333 11.2573 15.7856 11.2573 16.379C11.2573 16.7448 11.2233 19.7865 11.3807 19.7429C11.7605 19.6376 12.1751 18.4441 12.3818 18.1403C13.0427 17.1692 13.8546 16.4178 14.7819 15.7438C15.0902 15.5197 14.9565 16.1788 14.9053 16.3357C14.563 17.3853 13.4788 18.2061 12.5944 18.6962C11.8951 19.0836 10.512 20.1299 10.7087 18.7395C10.8836 17.5031 11.2382 16.2149 11.7784 15.1013C11.8893 14.8726 13.4082 12.4358 13.8219 12.7841C14.0169 12.9484 13.2164 14.8522 13.1361 15.0941C12.659 16.532 12.0232 17.8517 11.271 19.1509C10.8039 19.9576 11.1121 19.2703 11.2573 18.79C11.7456 17.1743 12.4598 15.5846 13.143 14.0546C13.2586 13.7958 13.8136 12.1673 14.2127 12.0623C14.5192 11.9816 13.7263 14.7338 13.6847 14.8631C13.2522 16.2077 12.7337 17.561 12.0527 18.79C11.5948 19.6164 11.779 18.9962 11.943 18.5013C12.5793 16.581 13.6365 14.3457 14.8916 12.813C15.012 12.666 15.3241 12.1539 15.5087 12.0984C15.591 12.0736 15.5602 13.9499 15.5499 14.1124C15.5033 14.8482 15.4503 15.6289 15.2344 16.3357C15.2255 16.3651 15.4689 15.5195 15.5362 15.354C16.0516 14.0849 16.5706 12.8463 17.2916 11.6869C18.0791 10.4207 17.6414 12.0404 17.4836 12.5387C17.431 12.7049 16.5287 15.2394 16.023 14.5888C15.6037 14.0493 15.5968 12.5361 15.5362 11.9035C15.4186 10.677 15.4539 9.43843 15.4539 8.20757C15.4539 8.06157 15.5173 7.44021 15.2756 7.8322C14.7292 8.71828 14.4693 9.8113 13.7327 10.5608C13.6699 10.6248 13.1441 11.1551 13.1773 11.0156C13.4069 10.0486 13.8412 9.18327 14.2607 8.29419C14.5829 7.61144 14.8763 7.02569 15.3442 6.44623C15.5753 6.15992 15.3901 6.68851 15.3304 6.77829C15.145 7.0572 13.4927 8.34344 13.4927 7.51458C13.4927 6.19632 15.1121 6.17782 15.9819 6.2369C16.4378 6.26786 16.5167 6.62617 16.2767 7.0165C15.8196 7.76028 14.7998 8.05123 14.0276 8.22201C12.8435 8.48386 12.0867 7.96533 12.6973 6.63392C12.907 6.17653 13.2386 5.51885 13.6984 5.27683C14.4324 4.89051 13.952 9.12545 13.8973 9.4636C13.6729 10.8503 13.2783 12.1351 12.6698 13.3833C12.611 13.5039 11.7271 15.0715 11.703 15.0003C11.4493 14.2527 12.1197 12.9834 12.3681 12.3366C12.8166 11.1688 13.3437 10.115 13.9179 9.01605C14.0552 8.75327 13.6673 9.84462 13.6299 9.94003C13.2108 11.0069 12.6374 11.9049 11.8881 12.7553C11.3536 13.362 10.7217 13.85 10.1052 14.3578C9.7316 14.6656 9.75727 14.3547 9.78981 13.9608C9.96706 11.815 10.7051 9.79943 12.1487 8.27975C12.9971 7.38666 12.9853 10.4464 12.9853 10.9795C12.9853 11.1018 12.8912 11.8184 13.0127 11.9179C13.1261 12.0107 13.5304 10.7878 13.5339 10.7774C13.7634 10.0862 14.0013 9.37287 14.1921 8.66956C14.3484 8.09373 13.4758 9.3572 13.4721 9.36254C13.0257 10.0205 12.6528 10.7134 12.2584 11.4054C11.7259 12.3398 12.1064 11.0514 12.231 10.7341C12.5128 10.0162 12.8345 9.31903 13.1087 8.59737C13.1598 8.46283 12.8023 9.50497 12.6698 9.73069C12.4446 10.1146 11.5209 12.1045 11.8195 10.7124C12.0064 9.84154 12.5 9.08636 12.9578 8.35194C13.0301 8.23599 13.6624 6.87394 13.575 7.64452C13.4548 8.70445 13.0968 10.5202 12.3956 11.3404C12.1152 11.6684 12.7246 10.5231 12.9578 10.1566C13.6851 9.0139 14.7412 8.21548 15.9613 7.74558C16.1202 7.68439 16.7295 7.36385 16.7979 7.68783C16.9087 8.21293 16.8116 8.85561 16.8116 9.39142C16.8116 10.4806 16.9971 10.6176 17.703 9.73791C17.8958 9.49771 19.6505 7.30841 19.6505 8.1426C19.6505 8.47934 19.5535 10.841 19.9522 9.66572C20.1465 9.09306 20.3398 8.48475 20.6105 7.9477C20.6979 7.77437 20.7704 7.43573 20.7614 7.81777C20.7486 8.35567 20.3911 9.92227 20.3911 9.3842C20.3911 8.6284 20.3593 6.88776 19.7671 6.3163C19.1294 5.70094 18.2132 7.22803 17.9499 7.60121C17.7098 7.94147 17.8111 7.34695 17.8265 7.2114C17.832 7.16271 17.9342 6.28536 17.9499 6.28743C18.1702 6.31641 18.1538 8.18232 18.2379 8.15704C18.4164 8.10336 19.4193 5.7514 19.3762 6.11418C19.3287 6.51435 18.5779 8.89576 18.4848 8.74174C18.218 8.30047 18.0824 7.58014 17.9293 7.08869C17.7651 6.56139 17.453 6.06554 17.319 5.53669C17.2579 5.29517 17.2252 5.42233 17.0585 5.57279C16.8145 5.79293 16.2584 5.77424 15.975 5.65219C15.5781 5.48124 15.4884 4.15073 15.975 4.15073C16.1985 4.15073 16.3445 4.14516 16.3179 4.43947C16.2466 5.22688 14.874 5.16692 14.3704 5.18298C14.059 5.19292 13.1887 5.17861 13.4516 5.00252C13.9798 4.64865 15.3884 4.91904 15.975 4.94477C17.1345 4.99563 18.5844 5.02864 19.6505 5.57279C20.3574 5.93359 18.6319 5.96862 18.4985 5.96981C17.6659 5.97724 16.7704 6.06435 15.9476 5.91206C15.8565 5.8952 15.1004 5.78761 15.3304 5.58001C15.7293 5.22014 17.2196 4.86071 17.607 5.3851C17.9554 5.85662 17.4753 6.53558 17.1956 6.87213C16.9469 7.1713 17.0572 7.67754 16.9419 8.04154C16.523 9.36446 15.2973 10.5755 14.1373 11.2105C13.0868 11.7855 16.2338 9.18203 17.3465 9.60797C17.9798 9.85041 17.6756 11.9309 17.6756 12.5243C17.6756 13.7323 17.3458 11.8895 17.2436 11.5498C17.1931 11.3818 17.0631 10.3372 16.743 10.4165C16.2765 10.532 16.2329 11.5647 16.1396 11.9468C15.9936 12.5446 15.8147 13.1831 15.9613 12.1417C16.0685 11.3801 15.9713 12.2202 15.8859 12.5315C15.5787 13.6509 15.0611 14.8189 14.3293 15.7005C13.5722 16.6125 12.4419 17.648 11.175 17.3752C10.4358 17.216 10.3565 15.971 9.64581 15.9242C8.76177 15.8661 9.05112 18.475 8.96694 18.956C8.92891 19.1734 8.66522 20.5437 8.66522 19.6274C8.66522 18.8381 8.66522 16.4704 8.66522 17.2597C8.66522 18.1467 9.12597 18.9133 9.52923 19.6562C9.58199 19.7534 9.76647 18.5264 9.76923 18.4363C9.80977 17.1133 9.68374 15.7907 9.47437 14.4877C9.13328 12.365 8.5698 10.105 8.96694 7.95492C9.11363 7.16075 9.0267 6.84418 9.92695 6.74942C10.7503 6.66274 13.207 6.48889 12.4093 6.72054C11.442 7.00145 10.0657 6.79002 9.06294 6.74942C7.65433 6.69238 11.6978 5.60406 13.095 5.40676C14.0167 5.2766 14.9581 5.32014 15.8859 5.32014C16.0875 5.32014 16.7886 5.44789 16.935 5.25517C17.2235 4.87553 17.0585 4.10724 17.0585 3.63099C17.0585 3.19854 18.8647 3.66738 19.1979 3.76092C19.677 3.89542 19.3058 4.364 18.9099 4.28066" stroke="#EE1313" stroke-width="3" stroke-linecap="round"/>
</svg>
