<svg width="21" height="22" viewBox="0 0 21 22" fill="none" xmlns="http://www.w3.org/2000/svg">
<path d="M14.1637 5.07418C13.9264 6.32408 13.7383 7.57876 13.551 8.83836C13.4783 9.32738 13.3994 9.8154 13.3325 10.3054C13.2823 10.6731 13.0073 11.2194 13.3006 11.4198C13.5317 11.5779 14.4477 11.033 14.5847 10.9422C15.3925 10.4066 15.8599 9.56003 16.1672 8.62229C16.4245 7.83691 16.7909 6.61377 16.3803 5.802C15.608 4.27508 13.6554 6.4948 13.194 7.12117C12.6 7.92747 12.1791 8.87778 11.9632 9.87323C11.951 9.92935 11.6956 10.8624 12.0324 10.7489C13.5739 10.2294 14.5827 8.36437 14.8031 6.75726C15.0639 4.8554 13.3722 5.93491 12.7358 6.68334C12.1904 7.3247 11.8011 8.05925 11.5849 8.89522C11.5498 9.03084 11.1796 10.5279 11.6275 10.5442C12.1194 10.5621 12.8053 9.70263 13.0661 9.41265C13.7902 8.60749 14.4922 7.68859 14.7871 6.59805C14.9971 5.82182 14.9612 4.76848 13.924 5.22771C13.0206 5.62768 11.247 7.40241 11.798 8.64503C12.43 10.0704 14.6471 7.91591 15.0376 7.36567C15.8355 6.24139 17.1378 2.89109 15.1974 2.14017C13.4004 1.44473 11.4961 3.48657 10.7643 4.97752C10.5548 5.40437 10.1151 6.35811 10.6151 6.80275C11.4217 7.52005 13.1196 7.1481 13.9826 6.83686C14.8513 6.52355 15.6299 5.98301 16.1778 5.19359C16.4406 4.81508 16.9538 3.90514 16.3963 3.52757C15.0963 2.64722 12.5958 3.8367 11.6275 4.77851C11.0158 5.37344 9.67856 7.52994 11.3078 7.72389C13.0464 7.93086 15.4972 7.13476 16.5455 5.55181C17.5112 4.09348 15.5818 4.25417 14.7392 4.47146C14.0724 4.64339 13.4075 4.94221 13.0022 5.56318C12.5694 6.22621 12.5947 7.1377 13.3538 7.50782C14.7997 8.21278 17.511 7.41481 17.8402 5.5177C17.9885 4.66308 14.7195 5.81239 14.5527 5.89866C13.8303 6.27231 13.1516 6.77947 12.8317 7.5988C12.6459 8.07444 12.4747 9.11611 13.0981 9.36148C14.3889 9.86957 15.8156 7.52126 16.2151 6.54687C16.336 6.252 16.5352 5.68114 16.4655 5.33574C16.3876 4.94932 15.4309 5.26753 15.3573 5.28457C13.5439 5.70407 11.2865 6.83071 10.9561 9.03169C10.6402 11.1359 13.1455 9.38145 13.7588 8.9464C15.7279 7.54956 17.2368 5.66529 18.6715 3.68678C18.8014 3.50764 19.1444 3.08158 18.9325 3.067C18.2015 3.01667 17.2141 3.80405 16.6734 4.19853C16.0328 4.66575 15.2475 5.25057 14.931 6.05219C14.677 6.69562 14.9888 7.15691 15.6343 7.04156C16.4311 6.89919 17.2271 6.45684 17.8296 5.89298C18.0325 5.70307 19.3996 3.7913 18.096 4.57381C17.2463 5.08387 16.58 5.92209 15.9967 6.73452C14.9747 8.15772 14.084 9.68493 13.0661 11.1128C12.4171 12.0232 11.7376 12.9084 11.0307 13.7682C10.8938 13.9347 10.7541 14.0984 10.6151 14.2629C10.514 14.3826 10.2534 14.4804 10.3167 14.6268C10.4496 14.934 13.7286 12.5759 13.9932 12.3296C14.0185 12.3061 14.7034 11.7097 14.6539 11.5336C14.627 11.4378 13.1827 12.8728 13.162 12.8982C12.7382 13.4188 11.0643 15.9378 12.5173 16.3155C14.2057 16.7544 16.1551 14.7201 16.8172 13.2735C18.0761 10.5233 13.1046 12.9918 12.5173 13.3588C11.2688 14.1389 10.1274 15.1118 9.28304 16.3781C9.07286 16.6933 8.73205 17.3865 8.61167 17.7996C8.56797 17.9496 8.52855 18.2592 8.67561 18.2659C9.34119 18.2961 10.5545 17.3896 11.0041 17.0832C12.3154 16.1893 13.9405 14.9462 14.3129 13.2109C14.4387 12.625 14.2466 12.0464 13.5883 12.0794C12.7679 12.1205 11.9949 12.7856 11.4783 13.3986C11.0988 13.8489 8.85259 17.8164 10.711 17.538C12.8247 17.2215 15.03 15.5999 16.327 13.8478C16.4446 13.6889 16.5573 13.5251 16.6574 13.3531C16.6943 13.2897 16.8486 12.9694 16.5934 13.2053C15.38 14.3267 14.4873 15.9943 13.6842 17.4471C13.3755 18.0055 12.6788 19.0698 12.6665 19.8068C12.6562 20.4239 13.819 19.4059 14.201 18.9425C14.8694 18.1318 16.6509 14.7405 14.4088 14.7405C13.4984 14.7405 12.5478 15.1253 11.6914 15.3944C11.2059 15.5469 10.6423 15.9958 10.2048 15.7242C9.85788 15.5088 10.2016 14.8675 10.1995 14.4391C10.1889 12.2362 9.26555 7.88294 6.40577 8.69052C4.70768 9.17005 2.34709 10.7058 2.01527 12.7276C1.97824 12.9533 1.98485 13.4305 2.31365 13.3986C2.94312 13.3375 3.47185 12.4781 3.69901 11.943C4.00402 11.2244 4.04005 10.4874 3.80557 9.73676C3.71384 9.44309 3.19651 8.07074 2.69729 8.19015C2.0634 8.34177 2.69849 11.7836 2.75057 12.2159C2.81386 12.7411 3.16518 15.7647 3.358 13.5919C3.44441 12.6181 3.42842 11.6289 3.41661 10.6522C3.41076 10.1686 3.23543 8.73824 3.36332 9.20227C4.18 12.1654 7.31411 14.5955 9.85849 15.7071C12.2365 16.7461 17.1125 16.9984 18.1226 13.6943C18.3257 13.0301 18.8494 10.4451 17.6697 10.4703C16.8041 10.4887 15.8253 10.8493 15.1015 11.3402C14.4608 11.7747 13.3612 12.9409 13.8227 13.899C14.564 15.4377 16.7054 13.2275 17.1209 12.5286C17.1772 12.434 17.6243 11.7178 17.4353 11.5108C17.1719 11.2223 16.2103 11.9431 16.0393 12.0794C15.6897 12.358 15.4312 12.6997 15.2507 13.12C15.1942 13.2515 15.0571 13.6882 15.336 13.3588C15.8741 12.723 16.2718 11.1998 15.0376 11.1924C14.6124 11.1898 14.0692 11.3853 13.876 11.8292C13.5675 12.5383 14.619 12.5694 14.9683 12.54C15.4914 12.4959 16.1521 12.355 16.5934 12.0226C17.0602 11.6709 16.0619 11.1571 15.8901 11.0104" stroke="#E22A19" stroke-width="3" stroke-linecap="round"/>
</svg>
